<svg xmlns="http://www.w3.org/2000/svg" xmlns:xlink="http://www.w3.org/1999/xlink" width="679.873" height="351.824" viewBox="0 0 679.873 351.824">
  <defs>
    <clipPath id="clip-path">
      <path id="Path_20589" data-name="Path 20589" d="M21947.736-12236.884c-5.373-1.873-11.4-4.426-16.455-1.808-1.426.739-2.646,1.852-4.119,2.5-2.277,1.006-4.889.789-7.367.555l-9.689-.914c-2.834-.27-5.891-.633-7.965-2.575s-2.24-6.048.363-7.2c-2.812-1.018-6.074-2.563-6.467-5.527-.3-2.291,1.3-4.341,2.771-6.122a161.138,161.138,0,0,0,28.705-52.1c2.281-6.944,4.084-14.037,5.814-21.139,1.693-6.971,3.316-13.963,4.939-20.953,2.645-11.389,6.693-22.848,8.223-34.438l1.482-11.172a.627.627,0,0,1,.117-.349c.172-.206.5-.125.752-.029.2.075.4.15.6.224-.2-.772-.738-1.915-.947-2.954-.182-.047-.365-.1-.549-.156a2.116,2.116,0,0,1-1-.551,2.346,2.346,0,0,1-.227-1.973c.906-4.974-.33-10.458-1.541-15.776-.65.045-1.318.025-1.709.509a1.511,1.511,0,0,0-.287.742c-.393,2.711,2.717,4.874,2.674,7.609a4.633,4.633,0,0,1-2.766,3.846,12.153,12.153,0,0,1-4.855.943,69.806,69.806,0,0,1-9.93-.29,12.044,12.044,0,0,1-4.492-1.1,4.6,4.6,0,0,1-2.582-3.629c-.062-1.385.7-2.648,1.242-3.915.852-1.969,1.137-4.5-.338-6.053-1.6-1.689-4.705-1.6-5.8-3.658a3.762,3.762,0,0,1,.693-4.014,12.332,12.332,0,0,1,3.463-2.549,5.441,5.441,0,0,0,1.447-1.08,5.672,5.672,0,0,0,1.014-3.019l.855-6.431a17.934,17.934,0,0,1,2.152-7.214l1.395-2.883a1.437,1.437,0,0,1,.713-.991,1.425,1.425,0,0,1,.83-.176c.008-.211.406-10.8,5.564-12.84,5.213-2.057,19.578-7.926,20.049-8.723s22.506,0,22.506,0,11.605,7.643,15.264,8.832,6.992.4,8.744,7.394c.422,1.684.721,2.967.936,3.945a7.009,7.009,0,0,1,5.635,2.481,14.62,14.62,0,0,1,2.943,7.194c.514,2.936.8,6.155,2.852,8.312,1.469,1.539,3.6,2.252,5.277,3.56s2.869,3.826,1.588,5.523c-.635.841-1.734,1.267-2.27,2.17a4.057,4.057,0,0,0-.3,2.582,19.571,19.571,0,0,0,.973,4.084,7.462,7.462,0,0,1,.742,3.651,6.265,6.265,0,0,1-1.682,2.86c-2.9,3.368-6.268,6.988-10.705,7.363a17.27,17.27,0,0,1-6.346-1.072,19.048,19.048,0,0,0-5.781-1.1,2.583,2.583,0,0,1-1.248,3.09,12.132,12.132,0,0,1,3.1,2.893c4.623,5.55,7.412,12.392,9.521,19.3a124.467,124.467,0,0,1,5.334,31.523,121.2,121.2,0,0,0,.783,13.611c.543,3.551,1.551,7.01,2.4,10.5,4.264,17.431,4.654,35.657,9.281,52.993a20.15,20.15,0,0,0,4.33,7.877,14.154,14.154,0,0,1,2.273,15.318,14.15,14.15,0,0,1-13.123,8.23,6.01,6.01,0,0,1,.35,6.428l-14.229-.823c-2.5-.144-5.135-.327-7.225-1.708-2.6-1.715-3.922-5.006-6.668-6.481a6.555,6.555,0,0,0-5.051-.276,6.57,6.57,0,0,0-3.746,3.4c-.492,1.183-.617,2.5-1.2,3.64-1.514,2.953-5.383,3.64-8.7,3.725q-.809.019-1.619.02A66.145,66.145,0,0,1,21947.736-12236.884Zm-3.385-192.853c.777-1.687,1.715-3-.2-3.468A11.99,11.99,0,0,0,21944.352-12429.736Z" transform="translate(-21896 12474.611)" fill="#d7385e"/>
    </clipPath>
  </defs>
  <g id="Group_13031" data-name="Group 13031" transform="translate(0)">
    <path id="Path_20518" data-name="Path 20518" d="M717.595,406.713l-66.288,31.375,58.67-43.871a331.076,331.076,0,0,0-32.034-42.154l-287.5,71.459,259.69-99.063a331.019,331.019,0,0,0-37.711-28.744L174.35,366.278a328.313,328.313,0,0,0-71.9,204.888H761.87a328.136,328.136,0,0,0-44.275-164.453Z" transform="translate(-81.997 -221.952)" fill="#d7385e" opacity="0.1"/>
    <path id="Path_20519" data-name="Path 20519" d="M615.53,247.986a329.941,329.941,0,0,0-397.8,85.51C321.3,310.8,501.615,271.521,615.53,247.986Z" transform="translate(-120.954 -194.593)" fill="#d7385e" opacity="0.1"/>
    <path id="Path_20520" data-name="Path 20520" d="M195.673,553.429c26.179,48.55,81.74,69.391,81.74,69.391S290.53,564.946,264.351,516.4s-81.74-69.391-81.74-69.391S169.494,504.878,195.673,553.429Z" transform="translate(-107.976 -273.076)" fill="#132743"/>
    <path id="Path_20521" data-name="Path 20521" d="M177.251,573.462c47.264,28.436,65.467,84.917,65.467,84.917s-58.427,10.378-105.691-18.058S71.56,555.4,71.56,555.4,129.987,545.026,177.251,573.462Z" transform="translate(-71.56 -309.082)" fill="#d7385e"/>
    <rect id="Rectangle_4392" data-name="Rectangle 4392" width="347.906" height="7.453" transform="translate(112.474 155.95)" fill="#1c3251"/>
    <rect id="Rectangle_4393" data-name="Rectangle 4393" width="347.906" height="7.453" transform="translate(112.474 193.218)" fill="#1c3251"/>
    <rect id="Rectangle_4394" data-name="Rectangle 4394" width="347.906" height="11.18" transform="translate(112.474 228.622)" fill="#1c3251"/>
    <rect id="Rectangle_4395" data-name="Rectangle 4395" width="215.905" height="7.731" transform="translate(166.331 349.208) rotate(-89.86)" fill="#1c3251"/>
    <rect id="Rectangle_4396" data-name="Rectangle 4396" width="215.905" height="7.731" transform="translate(394.402 349.762) rotate(-89.86)" fill="#1c3251"/>
    <path id="Path_20533" data-name="Path 20533" d="M843.886,232.439c-7.88-13.315-23.47-13.935-23.47-13.935s-15.192-1.943-24.937,18.336c-9.083,18.9-21.62,37.151-2.018,41.576L797,267.395l2.193,11.84a76.7,76.7,0,0,0,8.387.143c20.992-.678,40.983.2,40.339-7.334C847.064,262.031,851.469,245.25,843.886,232.439Z" transform="translate(-311.997 -195.844)" fill="#2f2e41"/>
    <path id="Path_20534" data-name="Path 20534" d="M846.639,668.077c-.68,3.036-1.894,5.991-1.959,9.1s1.437,6.574,4.412,7.482a10.178,10.178,0,0,0,4.326.038,8.243,8.243,0,0,0,4.446-1.516c1.679-1.469,1.873-3.971,1.888-6.2.076-11.1-1.274-22.15-2.622-33.165-.02-.17-7.226-.338-7.95-.006-2.1.964-1.911,3.332-1.938,5.344C847.156,655.46,848.033,661.853,846.639,668.077Z" transform="translate(-332.812 -339.516)" fill="#2f2e41"/>
    <path id="Path_20535" data-name="Path 20535" d="M767.112,668.077c.68,3.036,1.894,5.991,1.959,9.1s-1.437,6.574-4.412,7.482a10.178,10.178,0,0,1-4.326.038,8.243,8.243,0,0,1-4.446-1.516c-1.679-1.469-1.873-3.971-1.888-6.2-.076-11.1,1.274-22.15,2.622-33.165.02-.17,7.226-.338,7.95-.006,2.1.964,1.911,3.332,1.938,5.344C766.6,655.46,765.719,661.853,767.112,668.077Z" transform="translate(-302.169 -339.516)" fill="#2f2e41"/>
    <path id="Path_20538" data-name="Path 20538" d="M767.14,409.059c-.294,1.473-.628,2.938-.965,4.4q-3.018,13.135-6.241,26.221a25.65,25.65,0,0,1-1.673,5.172c-1.342,2.749-3.613,4.937-5.138,7.589s-2.155,6.263-.19,8.607c1.257,1.5,3.259,2.11,5.156,2.589,1.8.455,3.848.821,5.4-.194,1.657-1.081,2.088-3.281,2.33-5.244,1.028-8.335,1.308-16.824,3.608-24.9.768-2.7,1.757-5.327,2.744-7.953l5.834-15.519c1.456-3.872,2.931-7.846,2.946-11.982a2.9,2.9,0,0,0-.677-2.213,2.794,2.794,0,0,0-1.048-.53c-2.461-.793-8.779-1.442-10.441,1.254-.82,1.33-.422,4.4-.6,5.966Q767.807,405.711,767.14,409.059Z" transform="translate(-301.394 -255.304)" fill="#ffb8b8"/>
    <g id="Group_13034" data-name="Group 13034" transform="translate(564.735 160.529)">
      <path id="Path_20531" data-name="Path 20531" d="M968.055,425.289a4.44,4.44,0,0,0-3.669-3.637l3.637-3.669,3.669,3.637Z" transform="translate(-949.254 -404.849)" fill="#d7385e"/>
      <rect id="Rectangle_4397" data-name="Rectangle 4397" width="25.298" height="0.774" transform="translate(0 35.368) rotate(-45.237)" fill="#2f2e41"/>
      <g id="Group_13033" data-name="Group 13033" transform="translate(23.905 0) rotate(50)">
        <path id="Path_20595" data-name="Path 20595" d="M1.762,4.8A13.162,13.162,0,0,0,.08,12.868a13.162,13.162,0,0,0,6.709-4.8A13.162,13.162,0,0,0,8.47,0,13.162,13.162,0,0,0,1.762,4.8Z" transform="translate(9.74 2.38)" fill="#d7385e"/>
        <path id="Path_20596" data-name="Path 20596" d="M9.807,11.825s-.056-.009-.16-.03c-.083-.017-.2-.041-.336-.074A12.877,12.877,0,0,1,2.594,7.828,13.165,13.165,0,0,1,0,0,13.4,13.4,0,0,1,6.869,3.605q.177.189.345.392a13.023,13.023,0,0,1,2.593,7.609C9.809,11.748,9.807,11.825,9.807,11.825Z" transform="translate(0 3.381)" fill="#d7385e"/>
        <path id="Path_20597" data-name="Path 20597" d="M6.788,4.8A13.162,13.162,0,0,1,8.47,12.868a13.162,13.162,0,0,1-6.709-4.8A13.162,13.162,0,0,1,.08,0,13.162,13.162,0,0,1,6.788,4.8Z" transform="translate(1.349 2.38)" fill="none" stroke="#3f3d56" stroke-miterlimit="10" stroke-width="1"/>
        <path id="Path_20598" data-name="Path 20598" d="M2.988,8c-.061.074-.115.137-.16.188-.1.112-.154.171-.154.171s-.068-.085-.182-.245A12.968,12.968,0,0,1,.009.557Q.021.276.05,0,.227.189.4.392A13.023,13.023,0,0,1,2.988,8Z" transform="translate(6.819 6.987)" opacity="0.1"/>
        <path id="Path_20599" data-name="Path 20599" d="M6,7.8a13.162,13.162,0,0,1-3.329,7.544,13.162,13.162,0,0,1-2.666-7.8A13.162,13.162,0,0,1,3.338,0,13.162,13.162,0,0,1,6,7.8Z" transform="translate(7.238 0)" fill="#d7385e"/>
        <line id="Line_153" data-name="Line 153" y1="15.055" x2="0.692" transform="translate(9.913 0.173)" fill="none" stroke="#3f3d56" stroke-miterlimit="10" stroke-width="1"/>
      </g>
    </g>
    <g id="Group_13036" data-name="Group 13036" transform="translate(595.784 171.056) rotate(60)">
      <path id="Path_20531-2" data-name="Path 20531" d="M3.669,7.306A4.44,4.44,0,0,0,0,3.669L3.637,0,7.306,3.637Z" transform="translate(15.132 13.134)" fill="#d7385e"/>
      <rect id="Rectangle_4397-2" data-name="Rectangle 4397" width="25.298" height="0.774" transform="translate(0 35.368) rotate(-45.237)" fill="#2f2e41"/>
      <g id="Group_13033-2" data-name="Group 13033" transform="translate(23.905 0) rotate(50)">
        <path id="Path_20595-2" data-name="Path 20595" d="M1.762,4.8A13.162,13.162,0,0,0,.08,12.868a13.162,13.162,0,0,0,6.709-4.8A13.162,13.162,0,0,0,8.47,0,13.162,13.162,0,0,0,1.762,4.8Z" transform="translate(9.74 2.38)" fill="#d7385e"/>
        <path id="Path_20596-2" data-name="Path 20596" d="M9.807,11.825s-.056-.009-.16-.03c-.083-.017-.2-.041-.336-.074A12.877,12.877,0,0,1,2.594,7.828,13.165,13.165,0,0,1,0,0,13.4,13.4,0,0,1,6.869,3.605q.177.189.345.392a13.023,13.023,0,0,1,2.593,7.609C9.809,11.748,9.807,11.825,9.807,11.825Z" transform="translate(0 3.381)" fill="#d7385e"/>
        <path id="Path_20597-2" data-name="Path 20597" d="M6.788,4.8A13.162,13.162,0,0,1,8.47,12.868a13.162,13.162,0,0,1-6.709-4.8A13.162,13.162,0,0,1,.08,0,13.162,13.162,0,0,1,6.788,4.8Z" transform="translate(1.349 2.38)" fill="none" stroke="#3f3d56" stroke-miterlimit="10" stroke-width="1"/>
        <path id="Path_20598-2" data-name="Path 20598" d="M2.988,8c-.061.074-.115.137-.16.188-.1.112-.154.171-.154.171s-.068-.085-.182-.245A12.968,12.968,0,0,1,.009.557Q.021.276.05,0,.227.189.4.392A13.023,13.023,0,0,1,2.988,8Z" transform="translate(6.819 6.987)" opacity="0.1"/>
        <path id="Path_20599-2" data-name="Path 20599" d="M6,7.8a13.162,13.162,0,0,1-3.329,7.544,13.162,13.162,0,0,1-2.666-7.8A13.162,13.162,0,0,1,3.338,0,13.162,13.162,0,0,1,6,7.8Z" transform="translate(7.238)" fill="#d7385e"/>
        <line id="Line_153-2" data-name="Line 153" y1="15.055" x2="0.692" transform="translate(9.913 0.173)" fill="none" stroke="#3f3d56" stroke-miterlimit="10" stroke-width="1"/>
      </g>
    </g>
    <g id="Group_13035" data-name="Group 13035" transform="matrix(0.819, -0.574, 0.574, 0.819, 549.292, 165.396)">
      <path id="Path_20531-3" data-name="Path 20531" d="M3.669,7.306A4.44,4.44,0,0,0,0,3.669L3.637,0,7.306,3.637Z" transform="translate(15.132 13.134)" fill="#d7385e"/>
      <rect id="Rectangle_4397-3" data-name="Rectangle 4397" width="25.298" height="0.774" transform="translate(0 35.368) rotate(-45.237)" fill="#2f2e41"/>
      <g id="Group_13033-3" data-name="Group 13033" transform="translate(23.905 0) rotate(50)">
        <path id="Path_20595-3" data-name="Path 20595" d="M1.762,4.8A13.162,13.162,0,0,0,.08,12.868a13.162,13.162,0,0,0,6.709-4.8A13.162,13.162,0,0,0,8.47,0,13.162,13.162,0,0,0,1.762,4.8Z" transform="translate(9.74 2.38)" fill="#d7385e"/>
        <path id="Path_20596-3" data-name="Path 20596" d="M9.807,11.825s-.056-.009-.16-.03c-.083-.017-.2-.041-.336-.074A12.877,12.877,0,0,1,2.594,7.828,13.165,13.165,0,0,1,0,0,13.4,13.4,0,0,1,6.869,3.605q.177.189.345.392a13.023,13.023,0,0,1,2.593,7.609C9.809,11.748,9.807,11.825,9.807,11.825Z" transform="translate(0 3.381)" fill="#d7385e"/>
        <path id="Path_20597-3" data-name="Path 20597" d="M6.788,4.8A13.162,13.162,0,0,1,8.47,12.868a13.162,13.162,0,0,1-6.709-4.8A13.162,13.162,0,0,1,.08,0,13.162,13.162,0,0,1,6.788,4.8Z" transform="translate(1.349 2.38)" fill="none" stroke="#3f3d56" stroke-miterlimit="10" stroke-width="1"/>
        <path id="Path_20598-3" data-name="Path 20598" d="M2.988,8c-.061.074-.115.137-.16.188-.1.112-.154.171-.154.171s-.068-.085-.182-.245A12.968,12.968,0,0,1,.009.557Q.021.276.05,0,.227.189.4.392A13.023,13.023,0,0,1,2.988,8Z" transform="translate(6.819 6.987)" opacity="0.1"/>
        <path id="Path_20599-3" data-name="Path 20599" d="M6,7.8a13.162,13.162,0,0,1-3.329,7.544,13.162,13.162,0,0,1-2.666-7.8A13.162,13.162,0,0,1,3.338,0,13.162,13.162,0,0,1,6,7.8Z" transform="translate(7.238)" fill="#d7385e"/>
        <line id="Line_153-3" data-name="Line 153" y1="15.055" x2="0.692" transform="translate(9.913 0.173)" fill="none" stroke="#3f3d56" stroke-miterlimit="10" stroke-width="1"/>
      </g>
    </g>
    <path id="Path_20539" data-name="Path 20539" d="M884.149,395.83q5.8,16.42,12.83,32.37a26.546,26.546,0,0,1,1.484,3.892c.313,1.189.455,2.415.659,3.627,1.063,6.31,4.167,12.639,9.711,15.833a5.965,5.965,0,0,0,3.243.979c2.29-.133,3.921-2.359,4.55-4.564a11.858,11.858,0,0,0,.358-4.753,2.136,2.136,0,0,0-.395-1.13,2.394,2.394,0,0,0-.994-.592c-3.386-1.342-6.839-3.211-8.548-6.428a18.081,18.081,0,0,1-1.522-5.058l-3.307-16.8c-.393-2-.787-4-1.33-5.961-.445-1.607-.989-3.184-1.533-4.761l-3.612-10.469-2.659-7.707a1.132,1.132,0,0,0-1.34-.988l-7.439-.006C879.371,383.306,883.24,393.259,884.149,395.83Z" transform="translate(-345.372 -251.548)" fill="#ffb8b8"/>
    <circle id="Ellipse_38846" data-name="Ellipse 38846" cx="17.037" cy="17.037" r="17.037" transform="translate(487.063 36.242)" fill="#ffb8b8"/>
    <path id="Path_20540" data-name="Path 20540" d="M805.046,291.241a11.854,11.854,0,0,1-4.1,3.393,57.126,57.126,0,0,1-9.083,4.727c-2.847,1.072-5.922,1.717-8.4,3.483a14.644,14.644,0,0,0-5.188,7.844,43.6,43.6,0,0,0-1.377,9.458,4.39,4.39,0,0,0,.157,1.96,4.022,4.022,0,0,0,2.288,1.911c4.75,2.1,10.069,2.416,15.258,2.616,10.388.4,20.786.453,31.181.506a25.965,25.965,0,0,0,11.845-1.977l7.121-2.559a11.236,11.236,0,0,0,2.836-1.329c3.013-2.175,3.127-6.645,2.193-10.241-.709-2.731-1.972-5.5-4.34-7.037a17.387,17.387,0,0,0-4.365-1.724,43.623,43.623,0,0,1-14.02-7.425,10.452,10.452,0,0,1-2.569-2.665c-1.276-2.114-1.112-4.752-1.113-7.221a2.862,2.862,0,0,0-.637-2.176,2.92,2.92,0,0,0-1.727-.559c-4.042-.4-8.232-.708-12.213.3-2.478.629-2.722.768-2.622,3.193A9.271,9.271,0,0,1,805.046,291.241Z" transform="translate(-309.892 -217.266)" fill="#ffb8b8"/>
    <path id="Union_42" data-name="Union 42" d="M51.736,237.728c-5.373-1.873-11.4-4.426-16.454-1.807-1.428.739-2.647,1.851-4.12,2.5-2.277,1.006-4.888.789-7.367.554l-9.689-.914c-2.834-.269-5.89-.632-7.965-2.575s-2.24-6.048.363-7.2C3.691,227.271.43,225.726.037,222.762c-.3-2.292,1.3-4.341,2.772-6.122a161.175,161.175,0,0,0,28.7-52.1c2.281-6.945,4.085-14.037,5.814-21.14,1.693-6.971,3.316-13.963,4.939-20.953C44.912,111.059,48.96,99.6,50.49,88.009l1.481-11.172a.637.637,0,0,1,.117-.349c.172-.206.5-.125.753-.029l.6.224c-.205-.773-.739-1.915-.948-2.954-.183-.048-.366-.1-.549-.157a2.107,2.107,0,0,1-1-.551,2.349,2.349,0,0,1-.228-1.972c.907-4.974-.329-10.458-1.54-15.776-.65.045-1.317.025-1.709.509a1.511,1.511,0,0,0-.287.742c-.394,2.711,2.718,4.874,2.674,7.609a4.636,4.636,0,0,1-2.766,3.846,12.16,12.16,0,0,1-4.854.944,69.978,69.978,0,0,1-9.932-.291,12.04,12.04,0,0,1-4.492-1.1A4.6,4.6,0,0,1,25.234,63.9c-.062-1.385.694-2.648,1.241-3.915.853-1.969,1.139-4.5-.337-6.053-1.6-1.689-4.706-1.6-5.8-3.658a3.764,3.764,0,0,1,.694-4.014A12.332,12.332,0,0,1,24.5,43.71a5.426,5.426,0,0,0,1.447-1.08,5.672,5.672,0,0,0,1.014-3.019l.856-6.431a17.887,17.887,0,0,1,2.151-7.214l1.4-2.883A1.435,1.435,0,0,1,32.9,21.917c.008-.211.405-10.8,5.564-12.84C43.679,7.021,58.045,1.151,58.516.354s22.506,0,22.506,0S92.627,8,96.285,9.187s6.992.4,8.744,7.394c.422,1.684.722,2.967.937,3.945a7.007,7.007,0,0,1,5.634,2.481,14.6,14.6,0,0,1,2.942,7.194c.515,2.936.8,6.155,2.854,8.312,1.469,1.539,3.6,2.252,5.277,3.56s2.868,3.826,1.587,5.523c-.635.841-1.734,1.267-2.27,2.17a4.056,4.056,0,0,0-.3,2.582,19.628,19.628,0,0,0,.971,4.084,7.463,7.463,0,0,1,.744,3.651,6.267,6.267,0,0,1-1.683,2.86c-2.9,3.368-6.269,6.989-10.705,7.364a17.284,17.284,0,0,1-6.346-1.072,19.034,19.034,0,0,0-5.781-1.1,2.581,2.581,0,0,1-1.248,3.089,12.119,12.119,0,0,1,3.1,2.894c4.624,5.549,7.411,12.391,9.522,19.3a124.462,124.462,0,0,1,5.333,31.523,121.194,121.194,0,0,0,.782,13.611c.543,3.551,1.553,7.01,2.405,10.5,4.265,17.431,4.654,35.658,9.281,52.993a20.154,20.154,0,0,0,4.33,7.878,14.153,14.153,0,0,1-10.85,23.548,6.012,6.012,0,0,1,.35,6.428l-14.229-.823c-2.5-.143-5.134-.327-7.224-1.708-2.6-1.715-3.922-5.006-6.67-6.482a6.56,6.56,0,0,0-8.8,3.125c-.491,1.183-.616,2.5-1.2,3.64-1.513,2.952-5.383,3.639-8.7,3.724-.54.013-1.079.02-1.62.02A66.137,66.137,0,0,1,51.736,237.728ZM48.352,44.875c.777-1.687,1.714-3-.2-3.468A12.094,12.094,0,0,0,48.352,44.875Z" transform="translate(434.584 75.742)" fill="#d7385e"/>
    <g id="Mask_Group_12" data-name="Mask Group 12" transform="translate(434.584 75.742)" clip-path="url(#clip-path)">
      <path id="Path_20584" data-name="Path 20584" d="M30.444,186.723a12.572,12.572,0,0,1-1.729-3.955,7.5,7.5,0,0,0-1.392-2.676,7.507,7.507,0,0,0-2.547,1.619,12.515,12.515,0,0,1-3.475,2.557,3.2,3.2,0,0,1-3.874-.913,4.143,4.143,0,0,1-.054-3.375,3.94,3.94,0,0,1,.971-1.8,3.588,3.588,0,0,1,3.331-.474,15.7,15.7,0,0,0,3.37.861c-3.044-.835-6.25-2.437-7.339-5.413-.34-.932-.324-2.2.555-2.671a2.137,2.137,0,0,1,1.08-.178,5.216,5.216,0,0,1,4.29,2.827c.512-1.2-.136-2.558-.707-3.739s-1.057-2.66-.285-3.721a2.551,2.551,0,0,1,3.171-.53,5.776,5.776,0,0,1,2.288,2.587,20.263,20.263,0,0,1,1.512,3.807,20.519,20.519,0,0,1,3.211-2.541,5.78,5.78,0,0,1,3.273-1.1,2.559,2.559,0,0,1,2.48,2.054c.139,1.3-1.022,2.347-2.1,3.079s-2.325,1.583-2.481,2.881a5.222,5.222,0,0,1,5.126-.3,2.065,2.065,0,0,1,.844.692,1.414,1.414,0,0,1,.138,1.134,3.045,3.045,0,0,1-.991,1.46c-2.427,2.027-6,1.812-9.06,1.011a16.16,16.16,0,0,0,3.346.946,3.586,3.586,0,0,1,2.653,2.073,3.973,3.973,0,0,1-.065,2.047,4.115,4.115,0,0,1-1.733,2.894,2.272,2.272,0,0,1-1.1.271A3.659,3.659,0,0,1,30.444,186.723Zm80.1-5.864a12.56,12.56,0,0,1-1.729-3.955,7.507,7.507,0,0,0-1.4-2.68,7.552,7.552,0,0,0-2.543,1.624A12.486,12.486,0,0,1,101.4,178.4a3.2,3.2,0,0,1-3.872-.91,4.14,4.14,0,0,1-.053-3.374,3.948,3.948,0,0,1,.971-1.8,3.581,3.581,0,0,1,3.329-.472,15.811,15.811,0,0,0,3.373.858c-3.044-.834-6.25-2.442-7.339-5.411-.344-.933-.325-2.2.555-2.673a2.123,2.123,0,0,1,1.076-.176,5.219,5.219,0,0,1,4.291,2.821c.514-1.2-.139-2.554-.71-3.734s-1.051-2.663-.279-3.719a2.548,2.548,0,0,1,3.169-.536,5.833,5.833,0,0,1,2.291,2.586,20.57,20.57,0,0,1,1.51,3.812,20.171,20.171,0,0,1,3.212-2.541,5.777,5.777,0,0,1,3.273-1.1,2.546,2.546,0,0,1,2.479,2.048c.141,1.3-1.02,2.347-2.1,3.083s-2.324,1.583-2.481,2.878a5.207,5.207,0,0,1,5.125-.292,2.035,2.035,0,0,1,.846.691,1.4,1.4,0,0,1,.137,1.134,3.058,3.058,0,0,1-.99,1.454c-2.426,2.033-6,1.818-9.06,1.011a15.844,15.844,0,0,0,3.347.946,3.617,3.617,0,0,1,2.655,2.076,3.994,3.994,0,0,1-.066,2.044,4.125,4.125,0,0,1-1.733,2.9,2.29,2.29,0,0,1-1.1.27A3.659,3.659,0,0,1,110.54,180.859Zm39.2-2.445A12.576,12.576,0,0,1,148,174.458a7.5,7.5,0,0,0-1.393-2.677,7.419,7.419,0,0,0-2.543,1.622,12.586,12.586,0,0,1-3.473,2.553,3.2,3.2,0,0,1-3.875-.908,4.156,4.156,0,0,1-.053-3.376,3.993,3.993,0,0,1,.966-1.8,3.6,3.6,0,0,1,3.335-.474,15.949,15.949,0,0,0,3.371.86c-3.047-.835-6.251-2.44-7.342-5.412-.341-.933-.321-2.2.555-2.672a2.1,2.1,0,0,1,1.08-.176,5.221,5.221,0,0,1,4.292,2.823c.508-1.2-.141-2.557-.712-3.737s-1.051-2.66-.282-3.721a2.543,2.543,0,0,1,3.17-.53,5.753,5.753,0,0,1,2.286,2.583,20.189,20.189,0,0,1,1.517,3.812,20.235,20.235,0,0,1,3.212-2.542,5.777,5.777,0,0,1,3.269-1.1,2.557,2.557,0,0,1,2.485,2.051c.136,1.3-1.022,2.347-2.107,3.078s-2.319,1.585-2.479,2.88a5.221,5.221,0,0,1,5.129-.292,2.024,2.024,0,0,1,.842.69,1.413,1.413,0,0,1,.136,1.135,3,3,0,0,1-.989,1.455c-2.429,2.032-6.005,1.818-9.056,1.011a16.154,16.154,0,0,0,3.345.951,3.6,3.6,0,0,1,2.655,2.072,3.989,3.989,0,0,1-.066,2.047,4.157,4.157,0,0,1-1.732,2.9,2.284,2.284,0,0,1-1.1.271A3.662,3.662,0,0,1,149.737,178.415ZM62.824,167.949a12.607,12.607,0,0,1-1.732-3.955,7.392,7.392,0,0,0-1.393-2.677,7.545,7.545,0,0,0-2.541,1.622,12.65,12.65,0,0,1-3.476,2.557,3.2,3.2,0,0,1-3.872-.914,4.138,4.138,0,0,1-.053-3.375,3.952,3.952,0,0,1,.969-1.8,3.585,3.585,0,0,1,3.33-.472,15.662,15.662,0,0,0,3.374.858c-3.044-.833-6.251-2.439-7.339-5.41-.347-.933-.324-2.2.555-2.673a2.12,2.12,0,0,1,1.075-.176,5.217,5.217,0,0,1,4.291,2.824c.515-1.2-.139-2.557-.71-3.737s-1.052-2.661-.282-3.72a2.554,2.554,0,0,1,3.174-.531,5.8,5.8,0,0,1,2.287,2.587,20.388,20.388,0,0,1,1.511,3.807,20.768,20.768,0,0,1,3.212-2.541,5.793,5.793,0,0,1,3.273-1.1,2.556,2.556,0,0,1,2.482,2.051c.134,1.3-1.024,2.346-2.105,3.084s-2.325,1.578-2.479,2.878a5.2,5.2,0,0,1,5.124-.3,2.053,2.053,0,0,1,.847.691,1.4,1.4,0,0,1,.132,1.137,3.07,3.07,0,0,1-.985,1.456c-2.429,2.028-6.009,1.814-9.062,1.012a15.718,15.718,0,0,0,3.348.945,3.6,3.6,0,0,1,2.654,2.073,3.991,3.991,0,0,1-.067,2.048,4.139,4.139,0,0,1-1.733,2.9,2.269,2.269,0,0,1-1.093.27A3.665,3.665,0,0,1,62.824,167.949ZM13.4,157.72a12.653,12.653,0,0,1-1.735-3.955,7.378,7.378,0,0,0-1.39-2.678,7.545,7.545,0,0,0-2.544,1.621,12.568,12.568,0,0,1-3.474,2.557,3.2,3.2,0,0,1-3.873-.912,4.137,4.137,0,0,1-.054-3.376,3.975,3.975,0,0,1,.965-1.8,3.6,3.6,0,0,1,3.335-.474,15.531,15.531,0,0,0,3.373.86c-3.047-.835-6.25-2.439-7.339-5.412-.344-.933-.325-2.2.554-2.673A2.122,2.122,0,0,1,2.3,141.3a5.229,5.229,0,0,1,4.292,2.824c.513-1.2-.14-2.557-.711-3.736s-1.051-2.661-.285-3.721a2.558,2.558,0,0,1,3.175-.532,5.776,5.776,0,0,1,2.285,2.589,20.168,20.168,0,0,1,1.515,3.806,20.532,20.532,0,0,1,3.213-2.541,5.8,5.8,0,0,1,3.267-1.1,2.557,2.557,0,0,1,2.485,2.051c.135,1.3-1.021,2.348-2.106,3.084s-2.32,1.58-2.476,2.878a5.2,5.2,0,0,1,5.125-.3,2.073,2.073,0,0,1,.847.691,1.416,1.416,0,0,1,.131,1.138,3.049,3.049,0,0,1-.986,1.457c-2.43,2.026-6.009,1.813-9.059,1.011a15.822,15.822,0,0,0,3.347.945,3.587,3.587,0,0,1,2.651,2.073,3.949,3.949,0,0,1-.064,2.046,4.157,4.157,0,0,1-1.733,2.9,2.279,2.279,0,0,1-1.093.27A3.665,3.665,0,0,1,13.4,157.72ZM93.5,155.048a12.71,12.71,0,0,1-1.733-3.955,7.409,7.409,0,0,0-1.392-2.677,7.446,7.446,0,0,0-2.542,1.624,12.689,12.689,0,0,1-3.476,2.555,3.2,3.2,0,0,1-3.872-.914,4.143,4.143,0,0,1-.053-3.376,3.975,3.975,0,0,1,.965-1.8,3.6,3.6,0,0,1,3.335-.474,15.555,15.555,0,0,0,3.371.86c-3.046-.835-6.25-2.439-7.339-5.412-.345-.933-.324-2.2.555-2.671a2.12,2.12,0,0,1,1.077-.178,5.229,5.229,0,0,1,4.292,2.825c.512-1.2-.141-2.559-.711-3.737s-1.052-2.661-.284-3.721a2.556,2.556,0,0,1,3.175-.531,5.767,5.767,0,0,1,2.282,2.588,20.2,20.2,0,0,1,1.516,3.807,20.582,20.582,0,0,1,3.212-2.541,5.754,5.754,0,0,1,3.269-1.094,2.547,2.547,0,0,1,2.484,2.047c.137,1.3-1.022,2.347-2.107,3.083s-2.319,1.583-2.476,2.88a5.208,5.208,0,0,1,5.127-.3,2.071,2.071,0,0,1,.841.69,1.4,1.4,0,0,1,.135,1.14,3.063,3.063,0,0,1-.985,1.456c-2.432,2.025-6.01,1.813-9.06,1.011a15.82,15.82,0,0,0,3.346.945,3.59,3.59,0,0,1,2.653,2.073,3.98,3.98,0,0,1-.065,2.048,4.154,4.154,0,0,1-1.735,2.9,2.269,2.269,0,0,1-1.094.271A3.651,3.651,0,0,1,93.5,155.048Zm30.947-12.911a12.527,12.527,0,0,1-1.729-3.952,7.5,7.5,0,0,0-1.4-2.68,7.552,7.552,0,0,0-2.543,1.624,12.539,12.539,0,0,1-3.474,2.554,3.2,3.2,0,0,1-3.874-.911,4.136,4.136,0,0,1-.053-3.374,3.95,3.95,0,0,1,.97-1.8,3.574,3.574,0,0,1,3.329-.473,15.755,15.755,0,0,0,3.373.859c-3.042-.833-6.25-2.441-7.339-5.411-.344-.937-.325-2.2.555-2.673a2.124,2.124,0,0,1,1.076-.176,5.215,5.215,0,0,1,4.291,2.821c.514-1.2-.139-2.553-.709-3.734s-1.052-2.664-.28-3.72a2.549,2.549,0,0,1,3.17-.536,5.813,5.813,0,0,1,2.288,2.587,20.264,20.264,0,0,1,1.512,3.812,20.143,20.143,0,0,1,3.212-2.541,5.772,5.772,0,0,1,3.273-1.1,2.545,2.545,0,0,1,2.479,2.048c.138,1.3-1.02,2.347-2.1,3.083s-2.325,1.583-2.481,2.877a5.223,5.223,0,0,1,5.125-.295,2.1,2.1,0,0,1,.848.694,1.414,1.414,0,0,1,.135,1.136,3.067,3.067,0,0,1-.989,1.455c-2.427,2.032-6.005,1.813-9.061,1.011a15.853,15.853,0,0,0,3.347.945,3.606,3.606,0,0,1,2.655,2.077,3.993,3.993,0,0,1-.066,2.044,4.126,4.126,0,0,1-1.733,2.9,2.292,2.292,0,0,1-1.1.271A3.653,3.653,0,0,1,124.446,142.137Zm-82.071-2.443a12.582,12.582,0,0,1-1.735-3.955,7.448,7.448,0,0,0-1.39-2.68,7.469,7.469,0,0,0-2.544,1.625,12.545,12.545,0,0,1-3.474,2.553,3.2,3.2,0,0,1-3.872-.909,4.132,4.132,0,0,1-.053-3.375,3.968,3.968,0,0,1,.964-1.8,3.6,3.6,0,0,1,3.335-.474,15.839,15.839,0,0,0,3.372.86c-3.047-.834-6.25-2.443-7.339-5.412-.345-.933-.325-2.2.55-2.673a2.137,2.137,0,0,1,1.08-.176,5.224,5.224,0,0,1,4.292,2.82c.514-1.2-.139-2.554-.71-3.734s-1.052-2.664-.282-3.719a2.548,2.548,0,0,1,3.172-.535,5.79,5.79,0,0,1,2.284,2.586,20.418,20.418,0,0,1,1.517,3.811,20.211,20.211,0,0,1,3.212-2.54,5.755,5.755,0,0,1,3.268-1.1,2.547,2.547,0,0,1,2.485,2.05c.138,1.3-1.021,2.344-2.106,3.08s-2.321,1.583-2.476,2.878a5.211,5.211,0,0,1,5.125-.292,2.024,2.024,0,0,1,.843.69,1.4,1.4,0,0,1,.134,1.135,3.016,3.016,0,0,1-.985,1.454c-2.432,2.032-6.008,1.819-9.061,1.012a15.828,15.828,0,0,0,3.347.946,3.607,3.607,0,0,1,2.653,2.076,3.982,3.982,0,0,1-.066,2.048,4.146,4.146,0,0,1-1.732,2.9,2.288,2.288,0,0,1-1.1.271A3.65,3.65,0,0,1,42.375,139.694ZM158.8,131.9a12.618,12.618,0,0,1-1.729-3.955,7.494,7.494,0,0,0-1.394-2.676,7.509,7.509,0,0,0-2.545,1.619,12.633,12.633,0,0,1-3.476,2.559,3.2,3.2,0,0,1-3.872-.914,4.139,4.139,0,0,1-.053-3.376,3.959,3.959,0,0,1,.969-1.8,3.594,3.594,0,0,1,3.335-.473,15.654,15.654,0,0,0,3.368.859c-3.043-.835-6.25-2.437-7.339-5.409-.341-.936-.324-2.2.555-2.673a2.134,2.134,0,0,1,1.08-.178,5.214,5.214,0,0,1,4.287,2.827c.515-1.2-.135-2.557-.706-3.739s-1.051-2.659-.282-3.721a2.548,2.548,0,0,1,3.171-.529,5.764,5.764,0,0,1,2.287,2.586,20.213,20.213,0,0,1,1.512,3.807,20.324,20.324,0,0,1,3.212-2.541,5.765,5.765,0,0,1,3.272-1.1,2.559,2.559,0,0,1,2.481,2.053c.139,1.3-1.023,2.347-2.1,3.078s-2.323,1.583-2.479,2.883a5.212,5.212,0,0,1,5.125-.3,2.056,2.056,0,0,1,.846.691,1.413,1.413,0,0,1,.136,1.135,3.04,3.04,0,0,1-.989,1.46c-2.428,2.027-6,1.813-9.061,1.011a16.164,16.164,0,0,0,3.347.946,3.592,3.592,0,0,1,2.653,2.073,3.961,3.961,0,0,1-.065,2.048,4.118,4.118,0,0,1-1.735,2.893,2.276,2.276,0,0,1-1.1.273A3.659,3.659,0,0,1,158.8,131.9ZM76.731,129.23A12.676,12.676,0,0,1,75,125.275,7.337,7.337,0,0,0,73.6,122.6a7.562,7.562,0,0,0-2.541,1.62,12.622,12.622,0,0,1-3.476,2.558,3.2,3.2,0,0,1-3.872-.914,4.138,4.138,0,0,1-.053-3.375,3.958,3.958,0,0,1,.969-1.8,3.589,3.589,0,0,1,3.331-.473,15.777,15.777,0,0,0,3.373.859c-3.044-.834-6.251-2.437-7.339-5.41-.347-.933-.324-2.2.555-2.673a2.111,2.111,0,0,1,1.073-.176,5.216,5.216,0,0,1,4.292,2.826c.515-1.2-.139-2.558-.71-3.739s-1.05-2.659-.282-3.719a2.551,2.551,0,0,1,3.174-.53,5.752,5.752,0,0,1,2.284,2.585,20.229,20.229,0,0,1,1.516,3.807,20.667,20.667,0,0,1,3.211-2.541,5.781,5.781,0,0,1,3.27-1.1,2.56,2.56,0,0,1,2.485,2.052c.134,1.3-1.024,2.347-2.108,3.079s-2.319,1.583-2.477,2.882a5.212,5.212,0,0,1,5.125-.3,2.062,2.062,0,0,1,.846.691,1.394,1.394,0,0,1,.132,1.135,3.047,3.047,0,0,1-.985,1.458c-2.428,2.028-6.009,1.813-9.06,1.011a15.9,15.9,0,0,0,3.346.946,3.591,3.591,0,0,1,2.654,2.074,3.985,3.985,0,0,1-.065,2.048,4.131,4.131,0,0,1-1.735,2.893,2.255,2.255,0,0,1-1.1.272A3.653,3.653,0,0,1,76.731,129.23Zm30.675-12.9a12.6,12.6,0,0,1-1.734-3.952,7.484,7.484,0,0,0-1.392-2.682,7.417,7.417,0,0,0-2.542,1.625,12.6,12.6,0,0,1-3.476,2.552,3.2,3.2,0,0,1-3.872-.908,4.149,4.149,0,0,1-.053-3.38,3.938,3.938,0,0,1,.966-1.8,3.579,3.579,0,0,1,3.335-.474,15.78,15.78,0,0,0,3.371.857c-3.047-.832-6.251-2.44-7.34-5.412-.345-.933-.324-2.2.552-2.668a2.027,2.027,0,0,1,1.08-.178,5.223,5.223,0,0,1,4.292,2.821c.512-1.2-.141-2.557-.711-3.733s-1.052-2.664-.282-3.726a2.55,2.55,0,0,1,3.174-.53,5.781,5.781,0,0,1,2.282,2.585,20.325,20.325,0,0,1,1.516,3.809,20.736,20.736,0,0,1,3.212-2.542,5.786,5.786,0,0,1,3.269-1.093,2.548,2.548,0,0,1,2.484,2.048c.137,1.3-1.022,2.348-2.107,3.084s-2.319,1.583-2.476,2.877a5.208,5.208,0,0,1,5.126-.294,2.074,2.074,0,0,1,.841.69,1.4,1.4,0,0,1,.135,1.139,3.041,3.041,0,0,1-.985,1.455c-2.432,2.027-6.008,1.814-9.06,1.013a15.816,15.816,0,0,0,3.346.945,3.6,3.6,0,0,1,2.655,2.072,3.994,3.994,0,0,1-.067,2.047,4.154,4.154,0,0,1-1.731,2.9,2.3,2.3,0,0,1-1.1.27A3.656,3.656,0,0,1,107.406,116.325Zm-47.72-15.354a12.6,12.6,0,0,1-1.729-3.952,7.556,7.556,0,0,0-1.394-2.68,7.447,7.447,0,0,0-2.541,1.625,12.624,12.624,0,0,1-3.475,2.552,3.2,3.2,0,0,1-3.874-.909,4.141,4.141,0,0,1-.053-3.375,3.96,3.96,0,0,1,.965-1.8,3.586,3.586,0,0,1,3.335-.473,15.679,15.679,0,0,0,3.371.859c-3.048-.833-6.25-2.441-7.344-5.411-.341-.932-.319-2.2.555-2.672a2.133,2.133,0,0,1,1.08-.177,5.224,5.224,0,0,1,4.292,2.821c.509-1.2-.141-2.552-.711-3.734s-1.051-2.664-.283-3.72a2.547,2.547,0,0,1,3.17-.534,5.814,5.814,0,0,1,2.288,2.585,20.029,20.029,0,0,1,1.512,3.812,20.529,20.529,0,0,1,3.212-2.541,5.792,5.792,0,0,1,3.273-1.1A2.554,2.554,0,0,1,67.823,84.2c.134,1.3-1.027,2.347-2.108,3.083s-2.325,1.583-2.48,2.879a5.21,5.21,0,0,1,5.125-.292,2,2,0,0,1,.846.692,1.4,1.4,0,0,1,.136,1.134,3.049,3.049,0,0,1-.989,1.454c-2.427,2.033-6.005,1.813-9.061,1.013a15.944,15.944,0,0,0,3.352.944A3.6,3.6,0,0,1,65.3,97.18a3.939,3.939,0,0,1-.07,2.045,4.14,4.14,0,0,1-1.729,2.9,2.3,2.3,0,0,1-1.1.27A3.666,3.666,0,0,1,59.687,100.972Zm80.095-1.484a12.674,12.674,0,0,1-1.729-3.956,7.565,7.565,0,0,0-1.391-2.677,7.408,7.408,0,0,0-2.543,1.624,12.673,12.673,0,0,1-3.474,2.554,3.2,3.2,0,0,1-3.872-.909,4.143,4.143,0,0,1-.054-3.379,3.951,3.951,0,0,1,.965-1.8,3.583,3.583,0,0,1,3.335-.476,15.573,15.573,0,0,0,3.372.86c-3.046-.833-6.25-2.44-7.345-5.412-.34-.933-.319-2.2.555-2.673a2.1,2.1,0,0,1,1.08-.173,5.2,5.2,0,0,1,4.29,2.821c.511-1.2-.137-2.557-.708-3.737s-1.05-2.66-.284-3.722a2.548,2.548,0,0,1,3.171-.529,5.774,5.774,0,0,1,2.288,2.585,19.976,19.976,0,0,1,1.511,3.808,20.828,20.828,0,0,1,3.211-2.539,5.781,5.781,0,0,1,3.273-1.1,2.556,2.556,0,0,1,2.485,2.047c.135,1.3-1.026,2.347-2.106,3.085s-2.325,1.583-2.482,2.876a5.209,5.209,0,0,1,5.127-.294,2.053,2.053,0,0,1,.844.689,1.415,1.415,0,0,1,.138,1.139,3.072,3.072,0,0,1-.991,1.457c-2.425,2.025-6,1.813-9.059,1.012a15.93,15.93,0,0,0,3.352.945,3.586,3.586,0,0,1,2.651,2.071,3.909,3.909,0,0,1-.069,2.048,4.128,4.128,0,0,1-1.729,2.9,2.291,2.291,0,0,1-1.1.27A3.67,3.67,0,0,1,139.781,99.488ZM92.065,86.578a12.668,12.668,0,0,1-1.728-3.953,7.549,7.549,0,0,0-1.392-2.681A7.526,7.526,0,0,0,86.4,81.568a12.53,12.53,0,0,1-3.474,2.555,3.205,3.205,0,0,1-3.874-.909A4.142,4.142,0,0,1,79,79.837a3.894,3.894,0,0,1,.964-1.8,3.586,3.586,0,0,1,3.335-.474,15.641,15.641,0,0,0,3.373.86c-3.047-.835-6.251-2.443-7.344-5.412-.34-.933-.321-2.2.555-2.671a2.136,2.136,0,0,1,1.079-.178,5.219,5.219,0,0,1,4.288,2.821c.514-1.2-.134-2.553-.705-3.732s-1.051-2.664-.284-3.721A2.548,2.548,0,0,1,87.434,65a5.807,5.807,0,0,1,2.287,2.585,20.386,20.386,0,0,1,1.513,3.813,20.1,20.1,0,0,1,3.209-2.541,5.784,5.784,0,0,1,3.274-1.1A2.549,2.549,0,0,1,100.2,69.8c.141,1.3-1.023,2.347-2.1,3.084s-2.326,1.583-2.481,2.877a5.215,5.215,0,0,1,5.126-.292,2.061,2.061,0,0,1,.844.691,1.4,1.4,0,0,1,.137,1.134,3.062,3.062,0,0,1-.99,1.458c-2.427,2.03-6,1.813-9.059,1.011a15.787,15.787,0,0,0,3.345.945,3.585,3.585,0,0,1,2.653,2.076,3.906,3.906,0,0,1-.064,2.043,4.125,4.125,0,0,1-1.733,2.9,2.287,2.287,0,0,1-1.1.27A3.662,3.662,0,0,1,92.065,86.578Zm30.678-12.9a12.512,12.512,0,0,1-1.729-3.955,7.427,7.427,0,0,0-1.4-2.677,7.511,7.511,0,0,0-2.544,1.62,12.51,12.51,0,0,1-3.475,2.553,3.2,3.2,0,0,1-3.872-.908,4.139,4.139,0,0,1-.053-3.378,3.942,3.942,0,0,1,.971-1.8,3.579,3.579,0,0,1,3.329-.473,15.867,15.867,0,0,0,3.373.857c-3.044-.832-6.251-2.437-7.339-5.409-.342-.933-.326-2.2.553-2.672a2.078,2.078,0,0,1,1.078-.177,5.211,5.211,0,0,1,4.292,2.824c.514-1.206-.139-2.557-.71-3.737s-1.051-2.661-.279-3.722a2.545,2.545,0,0,1,3.169-.529,5.763,5.763,0,0,1,2.289,2.585,20.248,20.248,0,0,1,1.511,3.807,20.141,20.141,0,0,1,3.213-2.541,5.759,5.759,0,0,1,3.273-1.1,2.554,2.554,0,0,1,2.479,2.052c.14,1.3-1.022,2.347-2.1,3.079s-2.325,1.583-2.48,2.878a5.219,5.219,0,0,1,5.125-.292,2.069,2.069,0,0,1,.846.69,1.418,1.418,0,0,1,.137,1.136,3.029,3.029,0,0,1-.991,1.456c-2.426,2.031-6,1.818-9.06,1.011a16.159,16.159,0,0,0,3.347.949,3.591,3.591,0,0,1,2.652,2.073,3.954,3.954,0,0,1-.065,2.048,4.119,4.119,0,0,1-1.732,2.893,2.274,2.274,0,0,1-1.1.273A3.658,3.658,0,0,1,122.743,73.675Zm26.995-11.723A12.533,12.533,0,0,1,148,58a7.554,7.554,0,0,0-1.393-2.68,7.486,7.486,0,0,0-2.543,1.625A12.61,12.61,0,0,1,140.6,59.5a3.2,3.2,0,0,1-3.875-.909,4.156,4.156,0,0,1-.053-3.376,3.983,3.983,0,0,1,.966-1.8,3.587,3.587,0,0,1,3.335-.474,15.83,15.83,0,0,0,3.371.86c-3.047-.835-6.251-2.443-7.342-5.412-.341-.933-.321-2.2.555-2.673a2.131,2.131,0,0,1,1.08-.176,5.229,5.229,0,0,1,4.292,2.82c.508-1.2-.141-2.553-.712-3.732s-1.051-2.665-.282-3.721a2.548,2.548,0,0,1,3.17-.535,5.791,5.791,0,0,1,2.286,2.586,20.055,20.055,0,0,1,1.517,3.813,20.143,20.143,0,0,1,3.212-2.541,5.766,5.766,0,0,1,3.269-1.1,2.552,2.552,0,0,1,2.485,2.048c.136,1.3-1.022,2.347-2.107,3.084s-2.319,1.583-2.479,2.877a5.219,5.219,0,0,1,5.129-.292,2.016,2.016,0,0,1,.842.691,1.413,1.413,0,0,1,.136,1.135,3.056,3.056,0,0,1-.989,1.457c-2.429,2.03-6.005,1.813-9.056,1.011a15.787,15.787,0,0,0,3.345.945,3.6,3.6,0,0,1,2.655,2.076,3.973,3.973,0,0,1-.066,2.043,4.157,4.157,0,0,1-1.732,2.9,2.292,2.292,0,0,1-1.1.27A3.656,3.656,0,0,1,149.737,61.952ZM71.617,60.768a12.59,12.59,0,0,1-1.729-3.955,7.486,7.486,0,0,0-1.4-2.678,7.544,7.544,0,0,0-2.542,1.622,12.557,12.557,0,0,1-3.474,2.557A3.2,3.2,0,0,1,58.6,57.4a4.137,4.137,0,0,1-.053-3.374,3.938,3.938,0,0,1,.97-1.8,3.588,3.588,0,0,1,3.331-.474,15.743,15.743,0,0,0,3.371.861c-3.042-.835-6.25-2.441-7.339-5.413-.345-.933-.324-2.2.555-2.672a2.123,2.123,0,0,1,1.076-.176A5.22,5.22,0,0,1,64.8,47.174c.512-1.2-.141-2.557-.711-3.737s-1.052-2.661-.28-3.72a2.55,2.55,0,0,1,3.171-.532,5.789,5.789,0,0,1,2.288,2.587,20.457,20.457,0,0,1,1.512,3.807,20.614,20.614,0,0,1,3.21-2.541,5.8,5.8,0,0,1,3.274-1.1,2.552,2.552,0,0,1,2.48,2.051c.137,1.3-1.022,2.347-2.1,3.084s-2.325,1.579-2.481,2.879a5.205,5.205,0,0,1,5.126-.3,2.05,2.05,0,0,1,.846.692,1.419,1.419,0,0,1,.137,1.137,3.086,3.086,0,0,1-.991,1.458c-2.426,2.025-6.005,1.812-9.06,1.011a15.876,15.876,0,0,0,3.346.944,3.594,3.594,0,0,1,2.655,2.072,3.989,3.989,0,0,1-.066,2.047,4.125,4.125,0,0,1-1.732,2.9,2.278,2.278,0,0,1-1.1.27A3.664,3.664,0,0,1,71.617,60.768Zm30.4-11.722a12.7,12.7,0,0,1-1.729-3.955A7.469,7.469,0,0,0,98.9,42.415a7.454,7.454,0,0,0-2.542,1.62,12.66,12.66,0,0,1-3.475,2.557c-1.335.527-3.115.326-3.874-.912a4.146,4.146,0,0,1-.053-3.376,3.973,3.973,0,0,1,.966-1.8,3.594,3.594,0,0,1,3.335-.474,15.824,15.824,0,0,0,3.371.86c-3.047-.835-6.251-2.437-7.343-5.412-.342-.933-.32-2.2.555-2.672a2.131,2.131,0,0,1,1.079-.177A5.209,5.209,0,0,1,95.2,35.454c.513-1.2-.136-2.557-.707-3.738s-1.05-2.659-.282-3.721a2.548,2.548,0,0,1,3.169-.53,5.768,5.768,0,0,1,2.288,2.587,19.921,19.921,0,0,1,1.512,3.807,20.747,20.747,0,0,1,3.213-2.541,5.79,5.79,0,0,1,3.272-1.1,2.568,2.568,0,0,1,2.485,2.051c.135,1.3-1.026,2.35-2.107,3.082s-2.326,1.583-2.481,2.881a5.211,5.211,0,0,1,5.125-.3,2.037,2.037,0,0,1,.848.692,1.411,1.411,0,0,1,.134,1.134,3.053,3.053,0,0,1-.99,1.46c-2.427,2.027-6,1.813-9.061,1.011a16.188,16.188,0,0,0,3.352.947,3.588,3.588,0,0,1,2.654,2.071,3.922,3.922,0,0,1-.069,2.046,4.124,4.124,0,0,1-1.733,2.9,2.264,2.264,0,0,1-1.095.271A3.673,3.673,0,0,1,102.018,49.046ZM132.692,36.14a12.708,12.708,0,0,1-1.728-3.952,7.517,7.517,0,0,0-1.394-2.68,7.44,7.44,0,0,0-2.545,1.625,12.664,12.664,0,0,1-3.475,2.552,3.2,3.2,0,0,1-3.874-.909,4.168,4.168,0,0,1-.053-3.38,3.935,3.935,0,0,1,.968-1.8,3.576,3.576,0,0,1,3.335-.473,15.686,15.686,0,0,0,3.373.855c-3.048-.83-6.252-2.437-7.344-5.407-.34-.936-.321-2.2.554-2.672a2.028,2.028,0,0,1,1.08-.177,5.206,5.206,0,0,1,4.288,2.821c.514-1.2-.136-2.557-.705-3.734s-1.053-2.664-.284-3.726a2.548,2.548,0,0,1,3.171-.528,5.784,5.784,0,0,1,2.287,2.585,20.574,20.574,0,0,1,1.513,3.807,20.664,20.664,0,0,1,3.209-2.541,5.822,5.822,0,0,1,3.274-1.093,2.549,2.549,0,0,1,2.481,2.048c.139,1.3-1.023,2.347-2.1,3.083s-2.325,1.583-2.48,2.879a5.214,5.214,0,0,1,5.126-.3,2.139,2.139,0,0,1,.844.69,1.41,1.41,0,0,1,.135,1.14,3.033,3.033,0,0,1-.988,1.454c-2.429,2.027-6,1.813-9.059,1.011a15.818,15.818,0,0,0,3.345.946,3.581,3.581,0,0,1,2.653,2.074,3.942,3.942,0,0,1-.064,2.047,4.129,4.129,0,0,1-1.734,2.9,2.29,2.29,0,0,1-1.1.27A3.656,3.656,0,0,1,132.692,36.14ZM94.93,21.9A12.644,12.644,0,0,1,93.2,17.945a7.572,7.572,0,0,0-1.394-2.68,7.569,7.569,0,0,0-2.547,1.625,12.52,12.52,0,0,1-3.475,2.554,3.2,3.2,0,0,1-3.872-.911,4.149,4.149,0,0,1-.053-3.375,3.943,3.943,0,0,1,.969-1.8,3.577,3.577,0,0,1,3.333-.473,15.521,15.521,0,0,0,3.37.856c-3.044-.831-6.248-2.439-7.34-5.406-.341-.938-.325-2.2.553-2.674a2.14,2.14,0,0,1,1.081-.177A5.216,5.216,0,0,1,88.115,8.3c.515-1.2-.135-2.552-.706-3.734S86.357,1.906,87.126.851A2.549,2.549,0,0,1,90.3.315,5.806,5.806,0,0,1,92.583,2.9,20.319,20.319,0,0,1,94.1,6.71a20.412,20.412,0,0,1,3.209-2.539,5.8,5.8,0,0,1,3.275-1.1,2.549,2.549,0,0,1,2.48,2.048c.14,1.3-1.023,2.347-2.1,3.083s-2.324,1.583-2.479,2.88a5.217,5.217,0,0,1,5.125-.3,2.124,2.124,0,0,1,.846.694,1.41,1.41,0,0,1,.135,1.135,3.055,3.055,0,0,1-.988,1.456c-2.428,2.032-6.005,1.813-9.061,1.012a15.916,15.916,0,0,0,3.348.945,3.586,3.586,0,0,1,2.652,2.077,3.911,3.911,0,0,1-.065,2.043,4.115,4.115,0,0,1-1.733,2.9,2.279,2.279,0,0,1-1.095.271A3.648,3.648,0,0,1,94.93,21.9Z" transform="translate(-49.235 66.662) rotate(-30)" fill="#c52b4f" opacity="0.5"/>
    </g>
    <path id="Path_20541" data-name="Path 20541" d="M777.136,49.215l-15.4-8.067-21.269,3.3-4.4,19.436,10.955-.421,3.06-7.141v7.023l5.054-.195,2.934-11.368,1.833,12.1,17.97-.367Z" transform="translate(-248.73 -13.905)" fill="#2f2e41"/>
    <path id="Path_20544" data-name="Path 20544" d="M746.706,475.467s20.1,8.335,13.729,13.238-19.612-5.884-19.122-7.355-1.961-4.9-1.961-4.9Z" transform="translate(-297.22 -282.694)" fill="#cb8c8e"/>
    <path id="Path_20545" data-name="Path 20545" d="M722.549,376.233l6.374,5.884,1.471,17.161,4.9,18.141s8.335,17.161,6.864,20.593,1.471,4.413,1.471,4.413l-11.277,4.413S720.1,433.109,720.1,430.167,722.549,376.233,722.549,376.233Z" transform="translate(-290.714 -249.161)" fill="#3f3d56"/>
    <path id="Path_20546" data-name="Path 20546" d="M722.549,376.233l6.374,5.884,1.471,17.161,4.9,18.141s8.335,17.161,6.864,20.593,1.471,4.413,1.471,4.413l-11.277,4.413S720.1,433.109,720.1,430.167,722.549,376.233,722.549,376.233Z" transform="translate(-290.714 -249.161)" opacity="0.1"/>
    <path id="Path_20547" data-name="Path 20547" d="M813.377,662.217s-2.452,11.277-2.942,12.258,9.316,4.413,9.316,4.413l11.767-8.335s-4.9-10.787-4.9-12.748Z" transform="translate(-321.235 -344.309)" fill="#3f3d56"/>
    <path id="Path_20548" data-name="Path 20548" d="M700.328,476.948l3.432,3.922s71.094,8.826,72.565,22.554,11.767,92.774,5.884,94.736-21.083,9.316-21.083,5.393-9.806-72.181-7.845-81.987c0,0-84.823-10.787-86.784-23.044s1.961-17.651,1.961-17.651Z" transform="translate(-272.415 -283.195)" fill="#2f2e41"/>
    <path id="Path_20549" data-name="Path 20549" d="M700.328,476.948l3.432,3.922s71.094,8.826,72.565,22.554,11.767,92.774,5.884,94.736-21.083,9.316-21.083,5.393-9.806-72.181-7.845-81.987c0,0-84.823-10.787-86.784-23.044s1.961-17.651,1.961-17.651Z" transform="translate(-272.415 -283.195)" opacity="0.1"/>
    <path id="Path_20550" data-name="Path 20550" d="M810.644,678.09s-1.961-4.413-2.942-2.942-4.413,18.632-.981,18.632,34.812,7.845,39.225,6.864,12.748.49,11.767-4.413a6.882,6.882,0,0,0-5.884-5.393s-18.141-10.787-19.122-16.18-6.374-2.452-6.374-2.452v3.432S816.037,683.484,810.644,678.09Z" transform="translate(-319.481 -348.906)" fill="#2f2e41"/>
    <path id="Path_20551" data-name="Path 20551" d="M669.743,318.3s3.432,16.67-3.922,18.141,9.316,11.277,9.316,11.277l10.787,5.884,7.845-7.845s-7.109-14.464-1.716-25.251S669.743,318.3,669.743,318.3Z" transform="translate(-271.739 -228.491)" fill="#9f616a"/>
    <path id="Path_20552" data-name="Path 20552" d="M693.768,345.757l-7.845,7.845-10.787-5.884s-16.67-9.806-9.316-11.277c4.731-.946,5-8.183,4.589-13.224a45.588,45.588,0,0,0-.667-4.918s27.7-8.58,22.309,2.206a18.809,18.809,0,0,0-1.687,5.276C688.713,335.475,693.768,345.757,693.768,345.757Z" transform="translate(-271.739 -228.491)" fill="#cb8c8e"/>
    <path id="Path_20553" data-name="Path 20553" d="M678.9,477.5v11.277h18.632L699,484.365,697.041,472.6Z" transform="translate(-229.413 -159.7)" fill="#3f3d56"/>
    <path id="Path_20554" data-name="Path 20554" d="M634.193,488.756s0,28.928,11.767,29.909,53.934,6.374,53.934,6.374,2.452,48.05,6.864,63.74.49,16.67,4.413,17.651,20.593-2.452,20.1-5.884-2.452-90.216-2.452-90.216,4.413-18.632-54.424-27.457Z" transform="translate(-261.685 -285.196)" fill="#2f2e41"/>
    <path id="Path_20555" data-name="Path 20555" d="M749.353,672.1s-2.942-6.374-3.432-4.413-6.374,19.122-.49,20.593,24.515,9.316,36.773,8.826,13.729-.981,13.729-.981,3.432-4.9-.981-7.845-22.554-20.1-23.535-22.064-8.335-3.432-8.335,0S752.786,676.516,749.353,672.1Z" transform="translate(-298.397 -346.457)" fill="#2f2e41"/>
    <path id="Path_20556" data-name="Path 20556" d="M695.011,326.506a18.811,18.811,0,0,0-1.687,5.276c-2.442,1.476-4.074,1.1-7.139,1.1-4.545,0-6.379-5.81-9.316-8.826-.23-2.8-4.168.245-4.168.245S700.4,315.719,695.011,326.506Z" transform="translate(-274.698 -230.518)" opacity="0.1"/>
    <circle id="Ellipse_38847" data-name="Ellipse 38847" cx="18.777" cy="18.777" r="18.777" transform="translate(392.057 63.83)" fill="#cb8c8e"/>
    <path id="Path_20557" data-name="Path 20557" d="M696.8,371.8s-2.452,17.651-3.922,24.025-3.432,35.792-4.413,39.715-6.864,4.9-18.632,3.432a22.129,22.129,0,0,0-2.226-.167c-7.247-.23-15.538,2.481-23.211,4.609a58.348,58.348,0,0,1-12.316,2.422c-5.59.255-7.227-5.943-7.036-12.65.181-6.242,1.951-12.934,3.6-15.3,2.976-4.256.049-42.465,1.147-55.066v0a9.13,9.13,0,0,1,.814-3.766c2.942-3.922,22.064-13.729,24.206-13.331s20.411,11.861,20.411,11.861c4.413,0,4.271-4.785,4.271-4.785s3.084,5.766,8.968,7.237S696.8,371.8,696.8,371.8Z" transform="translate(-258.587 -238.847)" fill="#3f3d56"/>
    <path id="Path_20558" data-name="Path 20558" d="M681.615,481.127s31.583,1.006,26.051,4.758-30.048,7.185-30.538,2.281S681.615,481.127,681.615,481.127Z" transform="translate(-276.182 -284.607)" fill="#cb8c8e"/>
    <path id="Path_20559" data-name="Path 20559" d="M667.61,447.37c.1,1.883-4.962,6.124-6.6,8.992-.907,1.589-7.928-.505-16.612-4.383a170.328,170.328,0,0,1-19.352-10.228c.181-6.242,1.951-12.934,3.6-15.3,2.976-4.256.049-42.465,1.147-55.066v0a5.439,5.439,0,0,1,.814-.333H636.5c20.1,9.316-2.942,49.521-2.942,49.521s30.4,25.006,33.341,25.986A.882.882,0,0,1,667.61,447.37Z" transform="translate(-258.594 -247.409)" opacity="0.1"/>
    <path id="Path_20560" data-name="Path 20560" d="M628.153,366.606h-5.884s-5.393,1.471-9.806,11.277-20.593,40.205-6.374,51.973,44.618,25.5,46.579,22.064,8.826-8.826,5.884-9.806-33.341-25.986-33.341-25.986S648.255,375.921,628.153,366.606Z" transform="translate(-250.252 -245.908)" fill="#3f3d56"/>
    <path id="Path_20561" data-name="Path 20561" d="M675.385,286s.824-11.407,10.99-6.756,9.5-8.169,6.43-10.434-2.975-2.826-14.21-1.31-33.048,4.084-26,26.675,13.441,16.78,13.441,16.78-5.606-20.329.074-16.456l5.681,3.873,3-.635Z" transform="translate(-267.44 -212.131)" fill="#2f2e41"/>
    <circle id="Ellipse_38848" data-name="Ellipse 38848" cx="20.689" cy="20.689" r="20.689" transform="translate(269.058 0)" fill="#d7385e" opacity="0.4"/>
    <circle id="Ellipse_38849" data-name="Ellipse 38849" cx="14.513" cy="14.513" r="14.513" transform="translate(236.945 16.057)" fill="#d7385e" opacity="0.4"/>
    <circle id="Ellipse_38850" data-name="Ellipse 38850" cx="14.513" cy="14.513" r="14.513" transform="translate(599.103 229.909)" fill="#d7385e" opacity="0.4"/>
  </g>
</svg>
